<svg width="1050" height="91" viewBox="0 0 1050 91" fill="none" xmlns="http://www.w3.org/2000/svg">
<g clip-path="url(#clip0_232_1592)">
<path d="M9.408 55H2.064V38.224H8.592C9.728 38.224 10.704 38.36 11.52 38.632C12.352 38.904 12.976 39.272 13.392 39.736C14.144 40.6 14.52 41.576 14.52 42.664C14.52 43.976 14.096 44.952 13.248 45.592C12.96 45.816 12.76 45.96 12.648 46.024C12.536 46.072 12.336 46.16 12.048 46.288C13.088 46.512 13.912 46.984 14.52 47.704C15.144 48.408 15.456 49.288 15.456 50.344C15.456 51.512 15.056 52.544 14.256 53.44C13.328 54.48 11.712 55 9.408 55ZM5.808 45.016H7.584C8.624 45.016 9.392 44.904 9.888 44.68C10.4 44.456 10.656 43.976 10.656 43.24C10.656 42.488 10.424 41.992 9.96 41.752C9.496 41.512 8.712 41.392 7.608 41.392H5.808V45.016ZM5.808 51.832H8.376C9.448 51.832 10.248 51.704 10.776 51.448C11.32 51.176 11.592 50.656 11.592 49.888C11.592 49.104 11.304 48.592 10.728 48.352C10.168 48.096 9.264 47.968 8.016 47.968H5.808V51.832ZM29.3189 55H25.9349V53.44C25.0069 54.608 23.8549 55.192 22.4789 55.192C21.1189 55.192 19.9749 54.8 19.0469 54.016C18.1189 53.216 17.6549 52.16 17.6549 50.848C17.6549 49.52 18.1349 48.528 19.0949 47.872C20.0549 47.216 21.3669 46.888 23.0309 46.888H25.7189V46.816C25.7189 45.44 24.9909 44.752 23.5349 44.752C22.9109 44.752 22.2469 44.88 21.5429 45.136C20.8549 45.376 20.2709 45.68 19.7909 46.048L18.1829 43.72C19.8789 42.488 21.8149 41.872 23.9909 41.872C25.5589 41.872 26.8389 42.264 27.8309 43.048C28.8229 43.832 29.3189 45.072 29.3189 46.768V55ZM25.6949 50.08V49.456H23.4389C21.9989 49.456 21.2789 49.904 21.2789 50.8C21.2789 51.264 21.4469 51.624 21.7829 51.88C22.1349 52.12 22.6309 52.24 23.2709 52.24C23.9109 52.24 24.4709 52.048 24.9509 51.664C25.4469 51.264 25.6949 50.736 25.6949 50.08ZM36.3009 47.8V55H32.7009V42.088H36.3009V43.528C37.3889 42.424 38.6129 41.872 39.9729 41.872C41.3329 41.872 42.4689 42.352 43.3809 43.312C44.3089 44.272 44.7729 45.552 44.7729 47.152V55H41.1729V47.704C41.1729 45.72 40.4449 44.728 38.9889 44.728C38.2689 44.728 37.6369 44.992 37.0929 45.52C36.5649 46.032 36.3009 46.792 36.3009 47.8ZM53.289 55.192C51.769 55.192 50.409 54.544 49.209 53.248C48.009 51.952 47.409 50.344 47.409 48.424C47.409 46.504 47.993 44.936 49.161 43.72C50.329 42.488 51.697 41.872 53.265 41.872C54.833 41.872 56.113 42.424 57.105 43.528V37.192H60.705V55H57.105V53.296C56.097 54.56 54.825 55.192 53.289 55.192ZM51.033 48.568C51.033 49.608 51.345 50.464 51.969 51.136C52.593 51.792 53.321 52.12 54.153 52.12C54.985 52.12 55.689 51.792 56.265 51.136C56.857 50.464 57.153 49.608 57.153 48.568C57.153 47.512 56.857 46.64 56.265 45.952C55.689 45.248 54.977 44.896 54.129 44.896C53.281 44.896 52.553 45.248 51.945 45.952C51.337 46.656 51.033 47.528 51.033 48.568ZM75.1814 55H71.7974V53.44C70.8694 54.608 69.7174 55.192 68.3414 55.192C66.9814 55.192 65.8374 54.8 64.9094 54.016C63.9814 53.216 63.5174 52.16 63.5174 50.848C63.5174 49.52 63.9974 48.528 64.9574 47.872C65.9174 47.216 67.2294 46.888 68.8934 46.888H71.5814V46.816C71.5814 45.44 70.8534 44.752 69.3974 44.752C68.7734 44.752 68.1094 44.88 67.4054 45.136C66.7174 45.376 66.1334 45.68 65.6534 46.048L64.0454 43.72C65.7414 42.488 67.6774 41.872 69.8534 41.872C71.4214 41.872 72.7014 42.264 73.6934 43.048C74.6854 43.832 75.1814 45.072 75.1814 46.768V55ZM71.5574 50.08V49.456H69.3014C67.8614 49.456 67.1414 49.904 67.1414 50.8C67.1414 51.264 67.3094 51.624 67.6454 51.88C67.9974 52.12 68.4934 52.24 69.1334 52.24C69.7734 52.24 70.3334 52.048 70.8134 51.664C71.3094 51.264 71.5574 50.736 71.5574 50.08ZM87.6114 48.28C87.6114 47.24 87.3234 46.424 86.7474 45.832C86.1714 45.24 85.4594 44.944 84.6114 44.944C83.7634 44.944 83.0274 45.24 82.4034 45.832C81.7954 46.424 81.4914 47.232 81.4914 48.256C81.4914 49.28 81.7874 50.112 82.3794 50.752C82.9874 51.376 83.7234 51.688 84.5874 51.688C85.4514 51.688 86.1714 51.376 86.7474 50.752C87.3234 50.128 87.6114 49.304 87.6114 48.28ZM88.1154 52.816C86.9794 54.08 85.5634 54.712 83.8674 54.712C82.1874 54.712 80.7634 54.144 79.5954 53.008C78.4434 51.856 77.8674 50.328 77.8674 48.424C77.8674 46.504 78.4594 44.936 79.6434 43.72C80.8434 42.488 82.2114 41.872 83.7474 41.872C85.2834 41.872 86.5554 42.504 87.5634 43.768V42.064H91.1634V53.32C91.1634 54.472 90.9634 55.496 90.5634 56.392C90.1634 57.288 89.6274 57.992 88.9554 58.504C87.6274 59.56 86.0594 60.088 84.2514 60.088C83.2914 60.088 82.3074 59.928 81.2994 59.608C80.3074 59.304 79.4354 58.864 78.6834 58.288L80.0754 55.576C81.2594 56.472 82.5074 56.92 83.8194 56.92C85.1474 56.92 86.1954 56.592 86.9634 55.936C87.7314 55.28 88.1154 54.24 88.1154 52.816ZM105.855 53.128C104.399 54.504 102.687 55.192 100.719 55.192C98.7672 55.192 97.1512 54.592 95.8712 53.392C94.5912 52.176 93.9512 50.552 93.9512 48.52C93.9512 46.488 94.5992 44.872 95.8952 43.672C97.2072 42.472 98.7512 41.872 100.527 41.872C102.303 41.872 103.807 42.408 105.039 43.48C106.287 44.552 106.911 46.024 106.911 47.896V49.816H97.5032C97.6152 50.52 97.9832 51.096 98.6072 51.544C99.2312 51.992 99.9352 52.216 100.719 52.216C101.983 52.216 103.023 51.792 103.839 50.944L105.855 53.128ZM103.263 47.248C103.183 46.48 102.895 45.888 102.399 45.472C101.903 45.056 101.295 44.848 100.575 44.848C99.8712 44.848 99.2232 45.064 98.6312 45.496C98.0392 45.928 97.6952 46.512 97.5992 47.248H103.263Z" fill="#252B42"/>
<g clip-path="url(#clip1_232_1592)">
<g clip-path="url(#clip2_232_1592)">
<g clip-path="url(#clip3_232_1592)">
<path d="M235.391 40.214H237.575V50H235.391V46.15H231.499V50H229.315V40.214H231.499V44.302H235.391V40.214ZM241.649 46.234C241.649 46.85 241.822 47.354 242.167 47.746C242.522 48.1287 242.97 48.32 243.511 48.32C244.062 48.32 244.51 48.1287 244.855 47.746C245.21 47.354 245.387 46.85 245.387 46.234C245.387 45.618 245.21 45.114 244.855 44.722C244.51 44.33 244.062 44.134 243.511 44.134C242.97 44.134 242.522 44.33 242.167 44.722C241.822 45.114 241.649 45.618 241.649 46.234ZM247.501 46.234C247.501 47.326 247.123 48.2453 246.367 48.992C245.611 49.7387 244.659 50.112 243.511 50.112C242.373 50.112 241.425 49.7387 240.669 48.992C239.913 48.2453 239.535 47.326 239.535 46.234C239.535 45.142 239.913 44.2227 240.669 43.476C241.425 42.72 242.373 42.342 243.511 42.342C244.659 42.342 245.611 42.72 246.367 43.476C247.123 44.2227 247.501 45.142 247.501 46.234ZM256.177 45.94V50H254.063V45.884C254.063 45.2867 253.97 44.848 253.783 44.568C253.606 44.288 253.312 44.148 252.901 44.148C252.5 44.148 252.14 44.302 251.823 44.61C251.515 44.9087 251.361 45.352 251.361 45.94V50H249.261V42.468H251.361V43.322C251.94 42.6687 252.602 42.342 253.349 42.342C253.825 42.342 254.254 42.482 254.637 42.762C255.029 43.042 255.323 43.3827 255.519 43.784C255.808 43.3267 256.196 42.972 256.681 42.72C257.176 42.468 257.67 42.342 258.165 42.342C259.052 42.342 259.766 42.608 260.307 43.14C260.848 43.6627 261.119 44.4233 261.119 45.422V50H259.005V45.884C259.005 44.7267 258.58 44.148 257.731 44.148C257.311 44.148 256.947 44.302 256.639 44.61C256.331 44.9087 256.177 45.352 256.177 45.94ZM269.753 48.908C268.903 49.7107 267.905 50.112 266.757 50.112C265.618 50.112 264.675 49.762 263.929 49.062C263.182 48.3527 262.809 47.4053 262.809 46.22C262.809 45.0347 263.187 44.092 263.943 43.392C264.708 42.692 265.609 42.342 266.645 42.342C267.681 42.342 268.558 42.6547 269.277 43.28C270.005 43.9053 270.369 44.764 270.369 45.856V46.976H264.881C264.946 47.3867 265.161 47.7227 265.525 47.984C265.889 48.2453 266.299 48.376 266.757 48.376C267.494 48.376 268.101 48.1287 268.577 47.634L269.753 48.908ZM268.241 45.478C268.194 45.03 268.026 44.6847 267.737 44.442C267.447 44.1993 267.093 44.078 266.673 44.078C266.262 44.078 265.884 44.204 265.539 44.456C265.193 44.708 264.993 45.0487 264.937 45.478H268.241Z" fill="#737373"/>
</g>
</g>
<g clip-path="url(#clip4_232_1592)">
<g clip-path="url(#clip5_232_1592)">
<path d="M297.159 40.214C298.661 40.214 299.753 40.508 300.435 41.096C301.125 41.6747 301.471 42.5707 301.471 43.784C301.471 44.988 301.116 45.87 300.407 46.43C299.707 46.99 298.633 47.27 297.187 47.27H295.885V50H293.701V40.214H297.159ZM297.355 45.38C298.083 45.38 298.577 45.2353 298.839 44.946C299.1 44.6473 299.231 44.218 299.231 43.658C299.231 43.0887 299.058 42.6873 298.713 42.454C298.377 42.2113 297.849 42.09 297.131 42.09H295.885V45.38H297.355ZM307.127 44.316C306.502 44.316 306.035 44.54 305.727 44.988C305.419 45.4267 305.265 46.01 305.265 46.738V50H303.165V42.468H305.265V43.462C305.536 43.154 305.872 42.8927 306.273 42.678C306.684 42.4633 307.099 42.3513 307.519 42.342L307.533 44.316H307.127ZM310.692 46.234C310.692 46.85 310.864 47.354 311.21 47.746C311.564 48.1287 312.012 48.32 312.554 48.32C313.104 48.32 313.552 48.1287 313.898 47.746C314.252 47.354 314.43 46.85 314.43 46.234C314.43 45.618 314.252 45.114 313.898 44.722C313.552 44.33 313.104 44.134 312.554 44.134C312.012 44.134 311.564 44.33 311.21 44.722C310.864 45.114 310.692 45.618 310.692 46.234ZM316.544 46.234C316.544 47.326 316.166 48.2453 315.41 48.992C314.654 49.7387 313.702 50.112 312.554 50.112C311.415 50.112 310.468 49.7387 309.712 48.992C308.956 48.2453 308.578 47.326 308.578 46.234C308.578 45.142 308.956 44.2227 309.712 43.476C310.468 42.72 311.415 42.342 312.554 42.342C313.702 42.342 314.654 42.72 315.41 43.476C316.166 44.2227 316.544 45.142 316.544 46.234ZM321.314 50.112C320.427 50.112 319.634 49.734 318.934 48.978C318.234 48.222 317.884 47.284 317.884 46.164C317.884 45.044 318.224 44.1293 318.906 43.42C319.587 42.7013 320.385 42.342 321.3 42.342C322.214 42.342 322.961 42.664 323.54 43.308V39.612H325.64V50H323.54V49.006C322.952 49.7433 322.21 50.112 321.314 50.112ZM319.998 46.248C319.998 46.8547 320.18 47.354 320.544 47.746C320.908 48.1287 321.332 48.32 321.818 48.32C322.303 48.32 322.714 48.1287 323.05 47.746C323.395 47.354 323.568 46.8547 323.568 46.248C323.568 45.632 323.395 45.1233 323.05 44.722C322.714 44.3113 322.298 44.106 321.804 44.106C321.309 44.106 320.884 44.3113 320.53 44.722C320.175 45.1327 319.998 45.6413 319.998 46.248ZM332.686 46.528V42.468H334.8V50H332.686V49.006C332.163 49.7433 331.486 50.112 330.656 50.112C329.834 50.112 329.144 49.8553 328.584 49.342C328.024 48.8193 327.744 48.0493 327.744 47.032V42.468H329.858V46.57C329.858 47.7273 330.282 48.306 331.132 48.306C331.552 48.306 331.916 48.1567 332.224 47.858C332.532 47.55 332.686 47.1067 332.686 46.528ZM340.595 48.25C341.295 48.25 341.925 47.9 342.485 47.2L343.731 48.6C342.76 49.608 341.71 50.112 340.581 50.112C339.452 50.112 338.495 49.7573 337.711 49.048C336.936 48.3293 336.549 47.396 336.549 46.248C336.549 45.0907 336.941 44.1527 337.725 43.434C338.518 42.706 339.456 42.342 340.539 42.342C341.08 42.342 341.626 42.454 342.177 42.678C342.737 42.902 343.227 43.2333 343.647 43.672L342.555 45.1C342.312 44.8107 342.014 44.5867 341.659 44.428C341.314 44.2693 340.968 44.19 340.623 44.19C340.072 44.19 339.596 44.372 339.195 44.736C338.803 45.0907 338.607 45.59 338.607 46.234C338.607 46.8687 338.803 47.3633 339.195 47.718C339.596 48.0727 340.063 48.25 340.595 48.25ZM347.837 43.98V47.354C347.837 47.6433 347.912 47.872 348.061 48.04C348.211 48.1987 348.388 48.278 348.593 48.278C348.985 48.278 349.317 48.1007 349.587 47.746L350.371 49.216C349.718 49.8133 349.027 50.112 348.299 50.112C347.581 50.112 346.969 49.874 346.465 49.398C345.971 48.922 345.723 48.2733 345.723 47.452V43.98H344.841V42.468H345.723V40.214H347.837V42.468H349.657V43.98H347.837Z" fill="#737373"/>
</g>
</g>
<g clip-path="url(#clip6_232_1592)">
<g clip-path="url(#clip7_232_1592)">
<path d="M377.145 40.214C378.648 40.214 379.74 40.508 380.421 41.096C381.112 41.6747 381.457 42.5707 381.457 43.784C381.457 44.988 381.102 45.87 380.393 46.43C379.693 46.99 378.62 47.27 377.173 47.27H375.871V50H373.687V40.214H377.145ZM377.341 45.38C378.069 45.38 378.564 45.2353 378.825 44.946C379.086 44.6473 379.217 44.218 379.217 43.658C379.217 43.0887 379.044 42.6873 378.699 42.454C378.363 42.2113 377.836 42.09 377.117 42.09H375.871V45.38H377.341ZM387.114 44.316C386.488 44.316 386.022 44.54 385.714 44.988C385.406 45.4267 385.252 46.01 385.252 46.738V50H383.152V42.468H385.252V43.462C385.522 43.154 385.858 42.8927 386.26 42.678C386.67 42.4633 387.086 42.3513 387.506 42.342L387.52 44.316H387.114ZM391.207 50H389.107V42.468H391.207V50ZM389.275 41.516C389.042 41.2733 388.925 40.9793 388.925 40.634C388.925 40.2887 389.042 39.9993 389.275 39.766C389.518 39.5233 389.812 39.402 390.157 39.402C390.503 39.402 390.792 39.5233 391.025 39.766C391.268 39.9993 391.389 40.2887 391.389 40.634C391.389 40.9793 391.268 41.2733 391.025 41.516C390.792 41.7493 390.503 41.866 390.157 41.866C389.812 41.866 389.518 41.7493 389.275 41.516ZM397.007 48.25C397.707 48.25 398.337 47.9 398.897 47.2L400.143 48.6C399.173 49.608 398.123 50.112 396.993 50.112C395.864 50.112 394.907 49.7573 394.123 49.048C393.349 48.3293 392.961 47.396 392.961 46.248C392.961 45.0907 393.353 44.1527 394.137 43.434C394.931 42.706 395.869 42.342 396.951 42.342C397.493 42.342 398.039 42.454 398.589 42.678C399.149 42.902 399.639 43.2333 400.059 43.672L398.967 45.1C398.725 44.8107 398.426 44.5867 398.071 44.428C397.726 44.2693 397.381 44.19 397.035 44.19C396.485 44.19 396.009 44.372 395.607 44.736C395.215 45.0907 395.019 45.59 395.019 46.234C395.019 46.8687 395.215 47.3633 395.607 47.718C396.009 48.0727 396.475 48.25 397.007 48.25ZM403.844 50H401.744V42.468H403.844V50ZM401.912 41.516C401.678 41.2733 401.562 40.9793 401.562 40.634C401.562 40.2887 401.678 39.9993 401.912 39.766C402.154 39.5233 402.448 39.402 402.794 39.402C403.139 39.402 403.428 39.5233 403.662 39.766C403.904 39.9993 404.026 40.2887 404.026 40.634C404.026 40.9793 403.904 41.2733 403.662 41.516C403.428 41.7493 403.139 41.866 402.794 41.866C402.448 41.866 402.154 41.7493 401.912 41.516ZM408.132 45.8V50H406.032V42.468H408.132V43.308C408.766 42.664 409.48 42.342 410.274 42.342C411.067 42.342 411.73 42.622 412.262 43.182C412.803 43.742 413.074 44.4887 413.074 45.422V50H410.974V45.744C410.974 44.5867 410.549 44.008 409.7 44.008C409.28 44.008 408.911 44.162 408.594 44.47C408.286 44.7687 408.132 45.212 408.132 45.8ZM420.451 46.08C420.451 45.4733 420.283 44.9973 419.947 44.652C419.611 44.3067 419.196 44.134 418.701 44.134C418.206 44.134 417.777 44.3067 417.413 44.652C417.058 44.9973 416.881 45.4687 416.881 46.066C416.881 46.6633 417.054 47.1487 417.399 47.522C417.754 47.886 418.183 48.068 418.687 48.068C419.191 48.068 419.611 47.886 419.947 47.522C420.283 47.158 420.451 46.6773 420.451 46.08ZM420.745 48.726C420.082 49.4633 419.256 49.832 418.267 49.832C417.287 49.832 416.456 49.5007 415.775 48.838C415.103 48.166 414.767 47.2747 414.767 46.164C414.767 45.044 415.112 44.1293 415.803 43.42C416.503 42.7013 417.301 42.342 418.197 42.342C419.093 42.342 419.835 42.7107 420.423 43.448V42.454H422.523V49.02C422.523 49.692 422.406 50.2893 422.173 50.812C421.94 51.3347 421.627 51.7453 421.235 52.044C420.46 52.66 419.546 52.968 418.491 52.968C417.931 52.968 417.357 52.8747 416.769 52.688C416.19 52.5107 415.682 52.254 415.243 51.918L416.055 50.336C416.746 50.8587 417.474 51.12 418.239 51.12C419.014 51.12 419.625 50.9287 420.073 50.546C420.521 50.1633 420.745 49.5567 420.745 48.726Z" fill="#737373"/>
</g>
</g>
<g clip-path="url(#clip8_232_1592)">
<g clip-path="url(#clip9_232_1592)">
<path d="M450.763 48.068C451.836 48.068 452.714 47.6433 453.395 46.794L454.795 48.236C453.684 49.4867 452.373 50.112 450.861 50.112C449.358 50.112 448.117 49.636 447.137 48.684C446.166 47.732 445.681 46.5327 445.681 45.086C445.681 43.63 446.176 42.4167 447.165 41.446C448.164 40.4753 449.382 39.99 450.819 39.99C452.424 39.99 453.768 40.6013 454.851 41.824L453.493 43.364C452.802 42.5053 451.944 42.076 450.917 42.076C450.096 42.076 449.391 42.3467 448.803 42.888C448.224 43.42 447.935 44.1433 447.935 45.058C447.935 45.9633 448.21 46.6913 448.761 47.242C449.312 47.7927 449.979 48.068 450.763 48.068ZM457.892 46.234C457.892 46.85 458.065 47.354 458.41 47.746C458.765 48.1287 459.213 48.32 459.754 48.32C460.305 48.32 460.753 48.1287 461.098 47.746C461.453 47.354 461.63 46.85 461.63 46.234C461.63 45.618 461.453 45.114 461.098 44.722C460.753 44.33 460.305 44.134 459.754 44.134C459.213 44.134 458.765 44.33 458.41 44.722C458.065 45.114 457.892 45.618 457.892 46.234ZM463.744 46.234C463.744 47.326 463.366 48.2453 462.61 48.992C461.854 49.7387 460.902 50.112 459.754 50.112C458.615 50.112 457.668 49.7387 456.912 48.992C456.156 48.2453 455.778 47.326 455.778 46.234C455.778 45.142 456.156 44.2227 456.912 43.476C457.668 42.72 458.615 42.342 459.754 42.342C460.902 42.342 461.854 42.72 462.61 43.476C463.366 44.2227 463.744 45.142 463.744 46.234ZM467.604 45.8V50H465.504V42.468H467.604V43.308C468.239 42.664 468.953 42.342 469.746 42.342C470.539 42.342 471.202 42.622 471.734 43.182C472.275 43.742 472.546 44.4887 472.546 45.422V50H470.446V45.744C470.446 44.5867 470.021 44.008 469.172 44.008C468.752 44.008 468.383 44.162 468.066 44.47C467.758 44.7687 467.604 45.212 467.604 45.8ZM477.042 43.98V47.354C477.042 47.6433 477.117 47.872 477.266 48.04C477.415 48.1987 477.593 48.278 477.798 48.278C478.19 48.278 478.521 48.1007 478.792 47.746L479.576 49.216C478.923 49.8133 478.232 50.112 477.504 50.112C476.785 50.112 476.174 49.874 475.67 49.398C475.175 48.922 474.928 48.2733 474.928 47.452V43.98H474.046V42.468H474.928V40.214H477.042V42.468H478.862V43.98H477.042ZM487.3 50H485.326V49.09C484.785 49.7713 484.113 50.112 483.31 50.112C482.517 50.112 481.849 49.8833 481.308 49.426C480.767 48.9593 480.496 48.3433 480.496 47.578C480.496 46.8033 480.776 46.2247 481.336 45.842C481.896 45.4593 482.661 45.268 483.632 45.268H485.2V45.226C485.2 44.4233 484.775 44.022 483.926 44.022C483.562 44.022 483.175 44.0967 482.764 44.246C482.363 44.386 482.022 44.5633 481.742 44.778L480.804 43.42C481.793 42.7013 482.923 42.342 484.192 42.342C485.107 42.342 485.853 42.5707 486.432 43.028C487.011 43.4853 487.3 44.2087 487.3 45.198V50ZM485.186 47.13V46.766H483.87C483.03 46.766 482.61 47.0273 482.61 47.55C482.61 47.8207 482.708 48.0307 482.904 48.18C483.109 48.32 483.399 48.39 483.772 48.39C484.145 48.39 484.472 48.278 484.752 48.054C485.041 47.8207 485.186 47.5127 485.186 47.13ZM493.027 48.25C493.727 48.25 494.357 47.9 494.917 47.2L496.163 48.6C495.192 49.608 494.142 50.112 493.013 50.112C491.883 50.112 490.927 49.7573 490.143 49.048C489.368 48.3293 488.981 47.396 488.981 46.248C488.981 45.0907 489.373 44.1527 490.157 43.434C490.95 42.706 491.888 42.342 492.971 42.342C493.512 42.342 494.058 42.454 494.609 42.678C495.169 42.902 495.659 43.2333 496.079 43.672L494.987 45.1C494.744 44.8107 494.445 44.5867 494.091 44.428C493.745 44.2693 493.4 44.19 493.055 44.19C492.504 44.19 492.028 44.372 491.627 44.736C491.235 45.0907 491.039 45.59 491.039 46.234C491.039 46.8687 491.235 47.3633 491.627 47.718C492.028 48.0727 492.495 48.25 493.027 48.25ZM500.269 43.98V47.354C500.269 47.6433 500.344 47.872 500.493 48.04C500.642 48.1987 500.82 48.278 501.025 48.278C501.417 48.278 501.748 48.1007 502.019 47.746L502.803 49.216C502.15 49.8133 501.459 50.112 500.731 50.112C500.012 50.112 499.401 49.874 498.897 49.398C498.402 48.922 498.155 48.2733 498.155 47.452V43.98H497.273V42.468H498.155V40.214H500.269V42.468H502.089V43.98H500.269Z" fill="#737373"/>
</g>
</g>
</g>
<g clip-path="url(#clip10_232_1592)">
<g clip-path="url(#clip11_232_1592)">
<path d="M745.084 50V40.214H747.268V48.054H751.44V50H745.084ZM754.615 46.234C754.615 46.85 754.788 47.354 755.133 47.746C755.488 48.1287 755.936 48.32 756.477 48.32C757.028 48.32 757.476 48.1287 757.821 47.746C758.176 47.354 758.353 46.85 758.353 46.234C758.353 45.618 758.176 45.114 757.821 44.722C757.476 44.33 757.028 44.134 756.477 44.134C755.936 44.134 755.488 44.33 755.133 44.722C754.788 45.114 754.615 45.618 754.615 46.234ZM760.467 46.234C760.467 47.326 760.089 48.2453 759.333 48.992C758.577 49.7387 757.625 50.112 756.477 50.112C755.338 50.112 754.391 49.7387 753.635 48.992C752.879 48.2453 752.501 47.326 752.501 46.234C752.501 45.142 752.879 44.2227 753.635 43.476C754.391 42.72 755.338 42.342 756.477 42.342C757.625 42.342 758.577 42.72 759.333 43.476C760.089 44.2227 760.467 45.142 760.467 46.234ZM767.505 46.08C767.505 45.4733 767.337 44.9973 767.001 44.652C766.665 44.3067 766.249 44.134 765.755 44.134C765.26 44.134 764.831 44.3067 764.467 44.652C764.112 44.9973 763.935 45.4687 763.935 46.066C763.935 46.6633 764.107 47.1487 764.453 47.522C764.807 47.886 765.237 48.068 765.741 48.068C766.245 48.068 766.665 47.886 767.001 47.522C767.337 47.158 767.505 46.6773 767.505 46.08ZM767.799 48.726C767.136 49.4633 766.31 49.832 765.321 49.832C764.341 49.832 763.51 49.5007 762.829 48.838C762.157 48.166 761.821 47.2747 761.821 46.164C761.821 45.044 762.166 44.1293 762.857 43.42C763.557 42.7013 764.355 42.342 765.251 42.342C766.147 42.342 766.889 42.7107 767.477 43.448V42.454H769.577V49.02C769.577 49.692 769.46 50.2893 769.227 50.812C768.993 51.3347 768.681 51.7453 768.289 52.044C767.514 52.66 766.599 52.968 765.545 52.968C764.985 52.968 764.411 52.8747 763.823 52.688C763.244 52.5107 762.735 52.254 762.297 51.918L763.109 50.336C763.799 50.8587 764.527 51.12 765.293 51.12C766.067 51.12 766.679 50.9287 767.127 50.546C767.575 50.1633 767.799 49.5567 767.799 48.726ZM773.865 50H771.765V42.468H773.865V50ZM771.933 41.516C771.699 41.2733 771.583 40.9793 771.583 40.634C771.583 40.2887 771.699 39.9993 771.933 39.766C772.175 39.5233 772.469 39.402 772.815 39.402C773.16 39.402 773.449 39.5233 773.683 39.766C773.925 39.9993 774.047 40.2887 774.047 40.634C774.047 40.9793 773.925 41.2733 773.683 41.516C773.449 41.7493 773.16 41.866 772.815 41.866C772.469 41.866 772.175 41.7493 771.933 41.516ZM778.153 45.8V50H776.053V42.468H778.153V43.308C778.787 42.664 779.501 42.342 780.295 42.342C781.088 42.342 781.751 42.622 782.283 43.182C782.824 43.742 783.095 44.4887 783.095 45.422V50H780.995V45.744C780.995 44.5867 780.57 44.008 779.721 44.008C779.301 44.008 778.932 44.162 778.615 44.47C778.307 44.7687 778.153 45.212 778.153 45.8Z" fill="#23A6F0"/>
</g>
</g>
<g clip-path="url(#clip12_232_1592)">
<rect x="829" y="19" width="214" height="52" rx="5" fill="#23A6F0"/>
<path d="M859.488 50H855.204V40.214H859.012C859.675 40.214 860.244 40.2933 860.72 40.452C861.205 40.6107 861.569 40.8253 861.812 41.096C862.251 41.6 862.47 42.1693 862.47 42.804C862.47 43.5693 862.223 44.1387 861.728 44.512C861.56 44.6427 861.443 44.7267 861.378 44.764C861.313 44.792 861.196 44.8433 861.028 44.918C861.635 45.0487 862.115 45.324 862.47 45.744C862.834 46.1547 863.016 46.668 863.016 47.284C863.016 47.9653 862.783 48.5673 862.316 49.09C861.775 49.6967 860.832 50 859.488 50ZM857.388 44.176H858.424C859.031 44.176 859.479 44.1107 859.768 43.98C860.067 43.8493 860.216 43.5693 860.216 43.14C860.216 42.7013 860.081 42.412 859.81 42.272C859.539 42.132 859.082 42.062 858.438 42.062H857.388V44.176ZM857.388 48.152H858.886C859.511 48.152 859.978 48.0773 860.286 47.928C860.603 47.7693 860.762 47.466 860.762 47.018C860.762 46.5607 860.594 46.262 860.258 46.122C859.931 45.9727 859.404 45.898 858.676 45.898H857.388V48.152ZM871.37 48.908C870.521 49.7107 869.522 50.112 868.374 50.112C867.236 50.112 866.293 49.762 865.546 49.062C864.8 48.3527 864.426 47.4053 864.426 46.22C864.426 45.0347 864.804 44.092 865.56 43.392C866.326 42.692 867.226 42.342 868.262 42.342C869.298 42.342 870.176 42.6547 870.894 43.28C871.622 43.9053 871.986 44.764 871.986 45.856V46.976H866.498C866.564 47.3867 866.778 47.7227 867.142 47.984C867.506 48.2453 867.917 48.376 868.374 48.376C869.112 48.376 869.718 48.1287 870.194 47.634L871.37 48.908ZM869.858 45.478C869.812 45.03 869.644 44.6847 869.354 44.442C869.065 44.1993 868.71 44.078 868.29 44.078C867.88 44.078 867.502 44.204 867.156 44.456C866.811 44.708 866.61 45.0487 866.554 45.478H869.858ZM877.313 48.25C878.013 48.25 878.643 47.9 879.203 47.2L880.449 48.6C879.478 49.608 878.428 50.112 877.299 50.112C876.169 50.112 875.213 49.7573 874.429 49.048C873.654 48.3293 873.267 47.396 873.267 46.248C873.267 45.0907 873.659 44.1527 874.443 43.434C875.236 42.706 876.174 42.342 877.257 42.342C877.798 42.342 878.344 42.454 878.895 42.678C879.455 42.902 879.945 43.2333 880.365 43.672L879.273 45.1C879.03 44.8107 878.731 44.5867 878.377 44.428C878.031 44.2693 877.686 44.19 877.341 44.19C876.79 44.19 876.314 44.372 875.913 44.736C875.521 45.0907 875.325 45.59 875.325 46.234C875.325 46.8687 875.521 47.3633 875.913 47.718C876.314 48.0727 876.781 48.25 877.313 48.25ZM883.606 46.234C883.606 46.85 883.779 47.354 884.124 47.746C884.479 48.1287 884.927 48.32 885.468 48.32C886.019 48.32 886.467 48.1287 886.812 47.746C887.167 47.354 887.344 46.85 887.344 46.234C887.344 45.618 887.167 45.114 886.812 44.722C886.467 44.33 886.019 44.134 885.468 44.134C884.927 44.134 884.479 44.33 884.124 44.722C883.779 45.114 883.606 45.618 883.606 46.234ZM889.458 46.234C889.458 47.326 889.08 48.2453 888.324 48.992C887.568 49.7387 886.616 50.112 885.468 50.112C884.329 50.112 883.382 49.7387 882.626 48.992C881.87 48.2453 881.492 47.326 881.492 46.234C881.492 45.142 881.87 44.2227 882.626 43.476C883.382 42.72 884.329 42.342 885.468 42.342C886.616 42.342 887.568 42.72 888.324 43.476C889.08 44.2227 889.458 45.142 889.458 46.234ZM898.134 45.94V50H896.02V45.884C896.02 45.2867 895.926 44.848 895.74 44.568C895.562 44.288 895.268 44.148 894.858 44.148C894.456 44.148 894.097 44.302 893.78 44.61C893.472 44.9087 893.318 45.352 893.318 45.94V50H891.218V42.468H893.318V43.322C893.896 42.6687 894.559 42.342 895.306 42.342C895.782 42.342 896.211 42.482 896.594 42.762C896.986 43.042 897.28 43.3827 897.476 43.784C897.765 43.3267 898.152 42.972 898.638 42.72C899.132 42.468 899.627 42.342 900.122 42.342C901.008 42.342 901.722 42.608 902.264 43.14C902.805 43.6627 903.076 44.4233 903.076 45.422V50H900.962V45.884C900.962 44.7267 900.537 44.148 899.688 44.148C899.268 44.148 898.904 44.302 898.596 44.61C898.288 44.9087 898.134 45.352 898.134 45.94ZM911.709 48.908C910.86 49.7107 909.861 50.112 908.713 50.112C907.575 50.112 906.632 49.762 905.885 49.062C905.139 48.3527 904.765 47.4053 904.765 46.22C904.765 45.0347 905.143 44.092 905.899 43.392C906.665 42.692 907.565 42.342 908.601 42.342C909.637 42.342 910.515 42.6547 911.233 43.28C911.961 43.9053 912.325 44.764 912.325 45.856V46.976H906.837C906.903 47.3867 907.117 47.7227 907.481 47.984C907.845 48.2453 908.256 48.376 908.713 48.376C909.451 48.376 910.057 48.1287 910.533 47.634L911.709 48.908ZM910.197 45.478C910.151 45.03 909.983 44.6847 909.693 44.442C909.404 44.1993 909.049 44.078 908.629 44.078C908.219 44.078 907.841 44.204 907.495 44.456C907.15 44.708 906.949 45.0487 906.893 45.478H910.197ZM924.329 50H922.355V49.09C921.814 49.7713 921.142 50.112 920.339 50.112C919.546 50.112 918.878 49.8833 918.337 49.426C917.796 48.9593 917.525 48.3433 917.525 47.578C917.525 46.8033 917.805 46.2247 918.365 45.842C918.925 45.4593 919.69 45.268 920.661 45.268H922.229V45.226C922.229 44.4233 921.804 44.022 920.955 44.022C920.591 44.022 920.204 44.0967 919.793 44.246C919.392 44.386 919.051 44.5633 918.771 44.778L917.833 43.42C918.822 42.7013 919.952 42.342 921.221 42.342C922.136 42.342 922.882 42.5707 923.461 43.028C924.04 43.4853 924.329 44.2087 924.329 45.198V50ZM922.215 47.13V46.766H920.899C920.059 46.766 919.639 47.0273 919.639 47.55C919.639 47.8207 919.737 48.0307 919.933 48.18C920.138 48.32 920.428 48.39 920.801 48.39C921.174 48.39 921.501 48.278 921.781 48.054C922.07 47.8207 922.215 47.5127 922.215 47.13ZM937.251 45.94V50H935.137V45.884C935.137 45.2867 935.044 44.848 934.857 44.568C934.68 44.288 934.386 44.148 933.975 44.148C933.574 44.148 933.214 44.302 932.897 44.61C932.589 44.9087 932.435 45.352 932.435 45.94V50H930.335V42.468H932.435V43.322C933.014 42.6687 933.676 42.342 934.423 42.342C934.899 42.342 935.328 42.482 935.711 42.762C936.103 43.042 936.397 43.3827 936.593 43.784C936.882 43.3267 937.27 42.972 937.755 42.72C938.25 42.468 938.744 42.342 939.239 42.342C940.126 42.342 940.84 42.608 941.381 43.14C941.922 43.6627 942.193 44.4233 942.193 45.422V50H940.079V45.884C940.079 44.7267 939.654 44.148 938.805 44.148C938.385 44.148 938.021 44.302 937.713 44.61C937.405 44.9087 937.251 45.352 937.251 45.94ZM950.827 48.908C949.977 49.7107 948.979 50.112 947.831 50.112C946.692 50.112 945.749 49.762 945.003 49.062C944.256 48.3527 943.883 47.4053 943.883 46.22C943.883 45.0347 944.261 44.092 945.017 43.392C945.782 42.692 946.683 42.342 947.719 42.342C948.755 42.342 949.632 42.6547 950.351 43.28C951.079 43.9053 951.443 44.764 951.443 45.856V46.976H945.955C946.02 47.3867 946.235 47.7227 946.599 47.984C946.963 48.2453 947.373 48.376 947.831 48.376C948.568 48.376 949.175 48.1287 949.651 47.634L950.827 48.908ZM949.315 45.478C949.268 45.03 949.1 44.6847 948.811 44.442C948.521 44.1993 948.167 44.078 947.747 44.078C947.336 44.078 946.958 44.204 946.613 44.456C946.267 44.708 946.067 45.0487 946.011 45.478H949.315ZM960.073 45.94V50H957.959V45.884C957.959 45.2867 957.866 44.848 957.679 44.568C957.502 44.288 957.208 44.148 956.797 44.148C956.396 44.148 956.036 44.302 955.719 44.61C955.411 44.9087 955.257 45.352 955.257 45.94V50H953.157V42.468H955.257V43.322C955.836 42.6687 956.498 42.342 957.245 42.342C957.721 42.342 958.15 42.482 958.533 42.762C958.925 43.042 959.219 43.3827 959.415 43.784C959.704 43.3267 960.092 42.972 960.577 42.72C961.072 42.468 961.566 42.342 962.061 42.342C962.948 42.342 963.662 42.608 964.203 43.14C964.744 43.6627 965.015 44.4233 965.015 45.422V50H962.901V45.884C962.901 44.7267 962.476 44.148 961.627 44.148C961.207 44.148 960.843 44.302 960.535 44.61C960.227 44.9087 960.073 45.352 960.073 45.94ZM971.464 42.342C972.379 42.342 973.177 42.7013 973.858 43.42C974.54 44.1293 974.88 45.044 974.88 46.164C974.88 47.284 974.53 48.222 973.83 48.978C973.13 49.734 972.332 50.112 971.436 50.112C970.55 50.112 969.812 49.7433 969.224 49.006V50H967.124V39.612H969.224V43.308C969.803 42.664 970.55 42.342 971.464 42.342ZM969.196 46.248C969.196 46.8547 969.364 47.354 969.7 47.746C970.046 48.1287 970.461 48.32 970.946 48.32C971.432 48.32 971.856 48.1287 972.22 47.746C972.584 47.354 972.766 46.8547 972.766 46.248C972.766 45.6413 972.589 45.1327 972.234 44.722C971.88 44.3113 971.455 44.106 970.96 44.106C970.466 44.106 970.046 44.3113 969.7 44.722C969.364 45.1233 969.196 45.632 969.196 46.248ZM983.173 48.908C982.323 49.7107 981.325 50.112 980.177 50.112C979.038 50.112 978.095 49.762 977.349 49.062C976.602 48.3527 976.229 47.4053 976.229 46.22C976.229 45.0347 976.607 44.092 977.363 43.392C978.128 42.692 979.029 42.342 980.065 42.342C981.101 42.342 981.978 42.6547 982.697 43.28C983.425 43.9053 983.789 44.764 983.789 45.856V46.976H978.301C978.366 47.3867 978.581 47.7227 978.945 47.984C979.309 48.2453 979.719 48.376 980.177 48.376C980.914 48.376 981.521 48.1287 981.997 47.634L983.173 48.908ZM981.661 45.478C981.614 45.03 981.446 44.6847 981.157 44.442C980.867 44.1993 980.513 44.078 980.093 44.078C979.682 44.078 979.304 44.204 978.959 44.456C978.613 44.708 978.413 45.0487 978.357 45.478H981.661ZM989.465 44.316C988.84 44.316 988.373 44.54 988.065 44.988C987.757 45.4267 987.603 46.01 987.603 46.738V50H985.503V42.468H987.603V43.462C987.874 43.154 988.21 42.8927 988.611 42.678C989.022 42.4633 989.437 42.3513 989.857 42.342L989.871 44.316H989.465Z" fill="white"/>
<g clip-path="url(#clip13_232_1592)">
<path fill-rule="evenodd" clip-rule="evenodd" d="M1006 45C1006 44.8106 1006.08 44.6289 1006.22 44.495C1006.36 44.3611 1006.55 44.2858 1006.75 44.2858H1015.44L1012.22 41.2207C1012.08 41.0866 1012 40.9047 1012 40.7151C1012 40.5254 1012.08 40.3435 1012.22 40.2094C1012.36 40.0753 1012.55 40 1012.75 40C1012.95 40 1013.14 40.0753 1013.28 40.2094L1017.78 44.4944C1017.85 44.5607 1017.9 44.6395 1017.94 44.7263C1017.98 44.8131 1018 44.9061 1018 45C1018 45.0939 1017.98 45.1869 1017.94 45.2737C1017.9 45.3605 1017.85 45.4393 1017.78 45.5056L1013.28 49.7906C1013.14 49.9247 1012.95 50 1012.75 50C1012.55 50 1012.36 49.9247 1012.22 49.7906C1012.08 49.6565 1012 49.4746 1012 49.2849C1012 49.0953 1012.08 48.9134 1012.22 48.7793L1015.44 45.7142H1006.75C1006.55 45.7142 1006.36 45.6389 1006.22 45.505C1006.08 45.3711 1006 45.1894 1006 45Z" fill="white"/>
</g>
</g>
</g>
<defs>
<clipPath id="clip0_232_1592">
<rect width="1322" height="91" fill="white" transform="translate(-136)"/>
</clipPath>
<clipPath id="clip1_232_1592">
<rect width="275" height="24" fill="white" transform="translate(228 33)"/>
</clipPath>
<clipPath id="clip2_232_1592">
<rect width="43" height="24" fill="white" transform="translate(228 33)"/>
</clipPath>
<clipPath id="clip3_232_1592">
<rect width="43" height="24" fill="white" transform="translate(228 33)"/>
</clipPath>
<clipPath id="clip4_232_1592">
<rect width="59" height="24" fill="white" transform="translate(292 33)"/>
</clipPath>
<clipPath id="clip5_232_1592">
<rect width="59" height="24" fill="white" transform="translate(292 33)"/>
</clipPath>
<clipPath id="clip6_232_1592">
<rect width="52" height="24" fill="white" transform="translate(372 33)"/>
</clipPath>
<clipPath id="clip7_232_1592">
<rect width="52" height="24" fill="white" transform="translate(372 33)"/>
</clipPath>
<clipPath id="clip8_232_1592">
<rect width="58" height="24" fill="white" transform="translate(445 33)"/>
</clipPath>
<clipPath id="clip9_232_1592">
<rect width="58" height="24" fill="white" transform="translate(445 33)"/>
</clipPath>
<clipPath id="clip10_232_1592">
<rect width="41" height="22" fill="white" transform="translate(743 34)"/>
</clipPath>
<clipPath id="clip11_232_1592">
<rect width="41" height="22" fill="white" transform="translate(743 34)"/>
</clipPath>
<clipPath id="clip12_232_1592">
<rect width="214" height="52" fill="white" transform="translate(829 19)"/>
</clipPath>
<clipPath id="clip13_232_1592">
<rect width="12" height="10" fill="white" transform="translate(1006 40)"/>
</clipPath>
</defs>
</svg>
