<svg width="414" height="532" viewBox="0 0 414 532" fill="none" xmlns="http://www.w3.org/2000/svg">
<rect width="414" height="532" fill="#F7F7F7"/>
<path d="M44.408 61H37.064V44.224H43.592C44.728 44.224 45.704 44.36 46.52 44.632C47.352 44.904 47.976 45.272 48.392 45.736C49.144 46.6 49.52 47.576 49.52 48.664C49.52 49.976 49.096 50.952 48.248 51.592C47.96 51.816 47.76 51.96 47.648 52.024C47.536 52.072 47.336 52.16 47.048 52.288C48.088 52.512 48.912 52.984 49.52 53.704C50.144 54.408 50.456 55.288 50.456 56.344C50.456 57.512 50.056 58.544 49.256 59.44C48.328 60.48 46.712 61 44.408 61ZM40.808 51.016H42.584C43.624 51.016 44.392 50.904 44.888 50.68C45.4 50.456 45.656 49.976 45.656 49.24C45.656 48.488 45.424 47.992 44.96 47.752C44.496 47.512 43.712 47.392 42.608 47.392H40.808V51.016ZM40.808 57.832H43.376C44.448 57.832 45.248 57.704 45.776 57.448C46.32 57.176 46.592 56.656 46.592 55.888C46.592 55.104 46.304 54.592 45.728 54.352C45.168 54.096 44.264 53.968 43.016 53.968H40.808V57.832ZM64.3189 61H60.9349V59.44C60.0069 60.608 58.8549 61.192 57.4789 61.192C56.1189 61.192 54.9749 60.8 54.0469 60.016C53.1189 59.216 52.6549 58.16 52.6549 56.848C52.6549 55.52 53.1349 54.528 54.0949 53.872C55.0549 53.216 56.3669 52.888 58.0309 52.888H60.7189V52.816C60.7189 51.44 59.9909 50.752 58.5349 50.752C57.9109 50.752 57.2469 50.88 56.5429 51.136C55.8549 51.376 55.2709 51.68 54.7909 52.048L53.1829 49.72C54.8789 48.488 56.8149 47.872 58.9909 47.872C60.5589 47.872 61.8389 48.264 62.8309 49.048C63.8229 49.832 64.3189 51.072 64.3189 52.768V61ZM60.6949 56.08V55.456H58.4389C56.9989 55.456 56.2789 55.904 56.2789 56.8C56.2789 57.264 56.4469 57.624 56.7829 57.88C57.1349 58.12 57.6309 58.24 58.2709 58.24C58.9109 58.24 59.4709 58.048 59.9509 57.664C60.4469 57.264 60.6949 56.736 60.6949 56.08ZM71.3009 53.8V61H67.7009V48.088H71.3009V49.528C72.3889 48.424 73.6129 47.872 74.9729 47.872C76.3329 47.872 77.4689 48.352 78.3809 49.312C79.3089 50.272 79.7729 51.552 79.7729 53.152V61H76.1729V53.704C76.1729 51.72 75.4449 50.728 73.9889 50.728C73.2689 50.728 72.6369 50.992 72.0929 51.52C71.5649 52.032 71.3009 52.792 71.3009 53.8ZM88.289 61.192C86.769 61.192 85.409 60.544 84.209 59.248C83.009 57.952 82.409 56.344 82.409 54.424C82.409 52.504 82.993 50.936 84.161 49.72C85.329 48.488 86.697 47.872 88.265 47.872C89.833 47.872 91.113 48.424 92.105 49.528V43.192H95.705V61H92.105V59.296C91.097 60.56 89.825 61.192 88.289 61.192ZM86.033 54.568C86.033 55.608 86.345 56.464 86.969 57.136C87.593 57.792 88.321 58.12 89.153 58.12C89.985 58.12 90.689 57.792 91.265 57.136C91.857 56.464 92.153 55.608 92.153 54.568C92.153 53.512 91.857 52.64 91.265 51.952C90.689 51.248 89.977 50.896 89.129 50.896C88.281 50.896 87.553 51.248 86.945 51.952C86.337 52.656 86.033 53.528 86.033 54.568ZM110.181 61H106.797V59.44C105.869 60.608 104.717 61.192 103.341 61.192C101.981 61.192 100.837 60.8 99.9094 60.016C98.9814 59.216 98.5174 58.16 98.5174 56.848C98.5174 55.52 98.9974 54.528 99.9574 53.872C100.917 53.216 102.229 52.888 103.893 52.888H106.581V52.816C106.581 51.44 105.853 50.752 104.397 50.752C103.773 50.752 103.109 50.88 102.405 51.136C101.717 51.376 101.133 51.68 100.653 52.048L99.0454 49.72C100.741 48.488 102.677 47.872 104.853 47.872C106.421 47.872 107.701 48.264 108.693 49.048C109.685 49.832 110.181 51.072 110.181 52.768V61ZM106.557 56.08V55.456H104.301C102.861 55.456 102.141 55.904 102.141 56.8C102.141 57.264 102.309 57.624 102.645 57.88C102.997 58.12 103.493 58.24 104.133 58.24C104.773 58.24 105.333 58.048 105.813 57.664C106.309 57.264 106.557 56.736 106.557 56.08ZM122.611 54.28C122.611 53.24 122.323 52.424 121.747 51.832C121.171 51.24 120.459 50.944 119.611 50.944C118.763 50.944 118.027 51.24 117.403 51.832C116.795 52.424 116.491 53.232 116.491 54.256C116.491 55.28 116.787 56.112 117.379 56.752C117.987 57.376 118.723 57.688 119.587 57.688C120.451 57.688 121.171 57.376 121.747 56.752C122.323 56.128 122.611 55.304 122.611 54.28ZM123.115 58.816C121.979 60.08 120.563 60.712 118.867 60.712C117.187 60.712 115.763 60.144 114.595 59.008C113.443 57.856 112.867 56.328 112.867 54.424C112.867 52.504 113.459 50.936 114.643 49.72C115.843 48.488 117.211 47.872 118.747 47.872C120.283 47.872 121.555 48.504 122.563 49.768V48.064H126.163V59.32C126.163 60.472 125.963 61.496 125.563 62.392C125.163 63.288 124.627 63.992 123.955 64.504C122.627 65.56 121.059 66.088 119.251 66.088C118.291 66.088 117.307 65.928 116.299 65.608C115.307 65.304 114.435 64.864 113.683 64.288L115.075 61.576C116.259 62.472 117.507 62.92 118.819 62.92C120.147 62.92 121.195 62.592 121.963 61.936C122.731 61.28 123.115 60.24 123.115 58.816ZM140.855 59.128C139.399 60.504 137.687 61.192 135.719 61.192C133.767 61.192 132.151 60.592 130.871 59.392C129.591 58.176 128.951 56.552 128.951 54.52C128.951 52.488 129.599 50.872 130.895 49.672C132.207 48.472 133.751 47.872 135.527 47.872C137.303 47.872 138.807 48.408 140.039 49.48C141.287 50.552 141.911 52.024 141.911 53.896V55.816H132.503C132.615 56.52 132.983 57.096 133.607 57.544C134.231 57.992 134.935 58.216 135.719 58.216C136.983 58.216 138.023 57.792 138.839 56.944L140.855 59.128ZM138.263 53.248C138.183 52.48 137.895 51.888 137.399 51.472C136.903 51.056 136.295 50.848 135.575 50.848C134.871 50.848 134.223 51.064 133.631 51.496C133.039 51.928 132.695 52.512 132.599 53.248H138.263Z" fill="#252B42"/>
<g clip-path="url(#clip0_232_1926)">
<path fill-rule="evenodd" clip-rule="evenodd" d="M265.19 55.4778L271.646 61.9335C271.873 62.1605 272 62.4684 272 62.7895C272 63.1105 271.872 63.4183 271.645 63.6452C271.418 63.8721 271.11 63.9995 270.789 63.9994C270.468 63.9993 270.16 63.8717 269.933 63.6446L263.478 57.1889C261.548 58.6836 259.121 59.387 256.691 59.156C254.261 58.925 252.01 57.7769 250.397 55.9453C248.783 54.1137 247.928 51.7361 248.005 49.2963C248.082 46.8565 249.086 44.5377 250.812 42.8116C252.538 41.0856 254.857 40.0819 257.296 40.0048C259.736 39.9277 262.114 40.7829 263.945 42.3966C265.777 44.0102 266.925 46.261 267.156 48.691C267.387 51.1211 266.684 53.5479 265.189 55.4778H265.19ZM257.6 56.7989C259.51 56.7989 261.341 56.0404 262.691 54.6902C264.042 53.34 264.8 51.5087 264.8 49.5992C264.8 47.6898 264.042 45.8585 262.691 44.5083C261.341 43.1581 259.51 42.3996 257.6 42.3996C255.691 42.3996 253.86 43.1581 252.51 44.5083C251.159 45.8585 250.401 47.6898 250.401 49.5992C250.401 51.5087 251.159 53.34 252.51 54.6902C253.86 56.0404 255.691 56.7989 257.6 56.7989Z" fill="#737373"/>
</g>
<g clip-path="url(#clip1_232_1926)">
<path d="M304 63.4002C304.884 63.4002 305.6 62.6839 305.6 61.8002C305.6 60.9165 304.884 60.2002 304 60.2002C303.117 60.2002 302.4 60.9165 302.4 61.8002C302.4 62.6839 303.117 63.4002 304 63.4002Z" fill="#737373"/>
<path d="M315.2 63.4002C316.083 63.4002 316.8 62.6839 316.8 61.8002C316.8 60.9165 316.083 60.2002 315.2 60.2002C314.316 60.2002 313.6 60.9165 313.6 61.8002C313.6 62.6839 314.316 63.4002 315.2 63.4002Z" fill="#737373"/>
<path d="M318.4 45.0002H300.656L300 41.6402C299.963 41.4567 299.862 41.2922 299.716 41.1753C299.57 41.0584 299.387 40.9964 299.2 41.0002H296V42.6002H298.544L301.6 57.9602C301.637 58.1436 301.738 58.3081 301.884 58.425C302.03 58.542 302.213 58.6039 302.4 58.6002H316.8V57.0002H303.056L302.4 53.8002H316.8C316.985 53.8047 317.166 53.745 317.312 53.6312C317.457 53.5174 317.559 53.3566 317.6 53.1762L319.2 45.9762C319.227 45.8575 319.226 45.7342 319.198 45.6158C319.17 45.4974 319.116 45.3869 319.038 45.2928C318.961 45.1987 318.864 45.1234 318.753 45.0727C318.642 45.022 318.522 44.9972 318.4 45.0002ZM316.16 52.2002H302.096L300.976 46.6002H317.4L316.16 52.2002Z" fill="#737373"/>
</g>
<path d="M352.571 45H375.428V47.2857H352.571V45ZM358.286 50.7143H375.428V53H358.286V50.7143ZM365.428 56.4286H375.428V58.7143H365.428V56.4286Z" fill="#737373"/>
<g clip-path="url(#clip2_232_1926)">
<path d="M163.187 197V176.03H166.727V185.12H177.137V176.03H180.677V197H177.137V188.42H166.727V197H163.187ZM189.947 192.8C190.907 193.76 192.117 194.24 193.577 194.24C195.037 194.24 196.237 193.76 197.177 192.8C198.137 191.82 198.617 190.56 198.617 189.02C198.617 187.48 198.137 186.23 197.177 185.27C196.237 184.29 195.037 183.8 193.577 183.8C192.117 183.8 190.907 184.29 189.947 185.27C189.007 186.23 188.537 187.48 188.537 189.02C188.537 190.56 189.007 191.82 189.947 192.8ZM199.577 194.87C197.977 196.45 195.977 197.24 193.577 197.24C191.177 197.24 189.177 196.45 187.577 194.87C185.977 193.27 185.177 191.32 185.177 189.02C185.177 186.72 185.977 184.78 187.577 183.2C189.177 181.6 191.177 180.8 193.577 180.8C195.977 180.8 197.977 181.6 199.577 183.2C201.177 184.78 201.977 186.72 201.977 189.02C201.977 191.32 201.177 193.27 199.577 194.87ZM209.358 188.36V197H205.998V181.04H209.358V183.95C209.838 182.97 210.558 182.2 211.518 181.64C212.498 181.08 213.548 180.8 214.668 180.8C217.188 180.8 218.898 181.84 219.798 183.92C221.378 181.84 223.348 180.8 225.708 180.8C227.508 180.8 228.958 181.35 230.058 182.45C231.178 183.55 231.738 185.14 231.738 187.22V197H228.378V188.24C228.378 185.3 227.158 183.83 224.718 183.83C223.578 183.83 222.578 184.2 221.718 184.94C220.878 185.66 220.438 186.72 220.398 188.12V197H217.038V188.24C217.038 186.72 216.768 185.61 216.228 184.91C215.688 184.19 214.838 183.83 213.678 183.83C212.518 183.83 211.508 184.22 210.648 185C209.788 185.76 209.358 186.88 209.358 188.36ZM251.458 190.49H238.948C239.028 191.65 239.558 192.59 240.538 193.31C241.518 194.01 242.638 194.36 243.898 194.36C245.898 194.36 247.418 193.73 248.458 192.47L250.378 194.57C248.658 196.35 246.418 197.24 243.658 197.24C241.418 197.24 239.508 196.5 237.928 195.02C236.368 193.52 235.588 191.52 235.588 189.02C235.588 186.5 236.388 184.5 237.988 183.02C239.588 181.54 241.468 180.8 243.628 180.8C245.808 180.8 247.658 181.46 249.178 182.78C250.698 184.08 251.458 185.88 251.458 188.18V190.49ZM238.948 187.85H248.098C248.098 186.51 247.678 185.48 246.838 184.76C245.998 184.04 244.958 183.68 243.718 183.68C242.498 183.68 241.398 184.06 240.418 184.82C239.438 185.56 238.948 186.57 238.948 187.85Z" fill="#737373"/>
<path d="M155.468 251.03C158.648 251.03 160.968 251.64 162.428 252.86C163.888 254.08 164.618 255.96 164.618 258.5C164.618 261.04 163.868 262.9 162.368 264.08C160.888 265.26 158.608 265.85 155.528 265.85H151.808V272H148.268V251.03H155.468ZM155.918 262.64C157.878 262.64 159.208 262.27 159.908 261.53C160.628 260.77 160.988 259.67 160.988 258.23C160.988 256.77 160.538 255.74 159.638 255.14C158.738 254.54 157.328 254.24 155.408 254.24H151.808V262.64H155.918ZM176.866 259.19C175.206 259.19 173.956 259.73 173.116 260.81C172.276 261.89 171.856 263.34 171.856 265.16V272H168.496V256.04H171.856V259.25C172.396 258.25 173.126 257.43 174.046 256.79C174.986 256.15 175.976 255.82 177.016 255.8L177.046 259.19C176.986 259.19 176.926 259.19 176.866 259.19ZM184.047 267.8C185.007 268.76 186.217 269.24 187.677 269.24C189.137 269.24 190.337 268.76 191.277 267.8C192.237 266.82 192.717 265.56 192.717 264.02C192.717 262.48 192.237 261.23 191.277 260.27C190.337 259.29 189.137 258.8 187.677 258.8C186.217 258.8 185.007 259.29 184.047 260.27C183.107 261.23 182.637 262.48 182.637 264.02C182.637 265.56 183.107 266.82 184.047 267.8ZM193.677 269.87C192.077 271.45 190.077 272.24 187.677 272.24C185.277 272.24 183.277 271.45 181.677 269.87C180.077 268.27 179.277 266.32 179.277 264.02C179.277 261.72 180.077 259.78 181.677 258.2C183.277 256.6 185.277 255.8 187.677 255.8C190.077 255.8 192.077 256.6 193.677 258.2C195.277 259.78 196.077 261.72 196.077 264.02C196.077 266.32 195.277 268.27 193.677 269.87ZM206.607 272.24C204.587 272.24 202.827 271.48 201.327 269.96C199.827 268.44 199.077 266.44 199.077 263.96C199.077 261.48 199.847 259.5 201.387 258.02C202.927 256.54 204.757 255.8 206.877 255.8C209.017 255.8 210.737 256.7 212.037 258.5V249.74H215.397V272H212.037V269.6C210.797 271.36 208.987 272.24 206.607 272.24ZM202.437 264.11C202.437 265.63 202.927 266.87 203.907 267.83C204.887 268.79 206.037 269.27 207.357 269.27C208.677 269.27 209.797 268.79 210.717 267.83C211.637 266.85 212.097 265.6 212.097 264.08C212.097 262.56 211.637 261.29 210.717 260.27C209.797 259.25 208.667 258.74 207.327 258.74C205.987 258.74 204.837 259.25 203.877 260.27C202.917 261.29 202.437 262.57 202.437 264.11ZM231.613 264.68V256.04H234.973V272H231.613V269.09C231.073 270.07 230.323 270.84 229.363 271.4C228.423 271.96 227.403 272.24 226.303 272.24C224.503 272.24 223.043 271.69 221.923 270.59C220.823 269.49 220.273 267.9 220.273 265.82V256.04H223.633V264.8C223.633 267.74 224.853 269.21 227.293 269.21C228.453 269.21 229.463 268.83 230.323 268.07C231.183 267.29 231.613 266.16 231.613 264.68ZM247.128 272.24C244.908 272.24 242.998 271.49 241.398 269.99C239.798 268.47 238.998 266.49 238.998 264.05C238.998 261.61 239.828 259.63 241.488 258.11C243.168 256.57 245.208 255.8 247.608 255.8C250.008 255.8 252.038 256.63 253.698 258.29L251.718 260.72C250.338 259.52 248.948 258.92 247.548 258.92C246.148 258.92 244.928 259.39 243.888 260.33C242.868 261.25 242.358 262.45 242.358 263.93C242.358 265.39 242.868 266.63 243.888 267.65C244.908 268.67 246.158 269.18 247.638 269.18C249.138 269.18 250.548 268.5 251.868 267.14L253.848 269.3C251.908 271.26 249.668 272.24 247.128 272.24ZM261.673 258.74V266.84C261.673 267.6 261.873 268.21 262.273 268.67C262.673 269.11 263.233 269.33 263.953 269.33C264.673 269.33 265.363 268.98 266.023 268.28L267.403 270.65C266.223 271.71 264.913 272.24 263.473 272.24C262.053 272.24 260.833 271.75 259.813 270.77C258.813 269.77 258.313 268.43 258.313 266.75V258.74H256.303V256.04H258.313V251.03H261.673V256.04H265.873V258.74H261.673Z" fill="#737373"/>
<path d="M163.407 326.03C166.587 326.03 168.907 326.64 170.367 327.86C171.827 329.08 172.557 330.96 172.557 333.5C172.557 336.04 171.807 337.9 170.307 339.08C168.827 340.26 166.547 340.85 163.467 340.85H159.747V347H156.207V326.03H163.407ZM163.857 337.64C165.817 337.64 167.147 337.27 167.847 336.53C168.567 335.77 168.927 334.67 168.927 333.23C168.927 331.77 168.477 330.74 167.577 330.14C166.677 329.54 165.267 329.24 163.347 329.24H159.747V337.64H163.857ZM184.805 334.19C183.145 334.19 181.895 334.73 181.055 335.81C180.215 336.89 179.795 338.34 179.795 340.16V347H176.435V331.04H179.795V334.25C180.335 333.25 181.065 332.43 181.985 331.79C182.925 331.15 183.915 330.82 184.955 330.8L184.985 334.19C184.925 334.19 184.865 334.19 184.805 334.19ZM191.919 347H188.559V331.04H191.919V347ZM188.769 327.86C188.349 327.44 188.139 326.94 188.139 326.36C188.139 325.78 188.349 325.28 188.769 324.86C189.189 324.44 189.689 324.23 190.269 324.23C190.849 324.23 191.349 324.44 191.769 324.86C192.189 325.28 192.399 325.78 192.399 326.36C192.399 326.94 192.189 327.44 191.769 327.86C191.349 328.28 190.849 328.49 190.269 328.49C189.689 328.49 189.189 328.28 188.769 327.86ZM204.072 347.24C201.852 347.24 199.942 346.49 198.342 344.99C196.742 343.47 195.942 341.49 195.942 339.05C195.942 336.61 196.772 334.63 198.432 333.11C200.112 331.57 202.152 330.8 204.552 330.8C206.952 330.8 208.982 331.63 210.642 333.29L208.662 335.72C207.282 334.52 205.892 333.92 204.492 333.92C203.092 333.92 201.872 334.39 200.832 335.33C199.812 336.25 199.302 337.45 199.302 338.93C199.302 340.39 199.812 341.63 200.832 342.65C201.852 343.67 203.102 344.18 204.582 344.18C206.082 344.18 207.492 343.5 208.812 342.14L210.792 344.3C208.852 346.26 206.612 347.24 204.072 347.24ZM217.837 347H214.477V331.04H217.837V347ZM214.687 327.86C214.267 327.44 214.057 326.94 214.057 326.36C214.057 325.78 214.267 325.28 214.687 324.86C215.107 324.44 215.607 324.23 216.187 324.23C216.767 324.23 217.267 324.44 217.687 324.86C218.107 325.28 218.317 325.78 218.317 326.36C218.317 326.94 218.107 327.44 217.687 327.86C217.267 328.28 216.767 328.49 216.187 328.49C215.607 328.49 215.107 328.28 214.687 327.86ZM226.269 338.36V347H222.909V331.04H226.269V333.95C226.809 332.97 227.549 332.2 228.489 331.64C229.449 331.08 230.479 330.8 231.579 330.8C233.379 330.8 234.829 331.35 235.929 332.45C237.049 333.55 237.609 335.14 237.609 337.22V347H234.249V338.24C234.249 335.3 233.029 333.83 230.589 333.83C229.429 333.83 228.419 334.22 227.559 335C226.699 335.76 226.269 336.88 226.269 338.36ZM257.264 331.04V344.96C257.264 347.78 256.494 349.89 254.954 351.29C253.434 352.71 251.474 353.42 249.074 353.42C246.674 353.42 244.504 352.67 242.564 351.17L244.154 348.62C245.714 349.8 247.284 350.39 248.864 350.39C250.464 350.39 251.724 349.98 252.644 349.16C253.584 348.34 254.054 347.03 254.054 345.23V343.19C253.554 344.13 252.834 344.88 251.894 345.44C250.974 346 249.934 346.28 248.774 346.28C246.654 346.28 244.914 345.54 243.554 344.06C242.194 342.58 241.514 340.74 241.514 338.54C241.514 336.34 242.194 334.5 243.554 333.02C244.914 331.54 246.644 330.8 248.744 330.8C250.864 330.8 252.584 331.67 253.904 333.41V331.04H257.264ZM244.814 338.42C244.814 339.72 245.214 340.85 246.014 341.81C246.834 342.75 247.924 343.22 249.284 343.22C250.664 343.22 251.774 342.76 252.614 341.84C253.474 340.92 253.904 339.78 253.904 338.42C253.904 337.04 253.474 335.88 252.614 334.94C251.754 333.98 250.644 333.5 249.284 333.5C247.924 333.5 246.834 333.99 246.014 334.97C245.214 335.95 244.814 337.1 244.814 338.42Z" fill="#737373"/>
<path d="M158.19 418.79C159.41 418.79 160.46 418.59 161.34 418.19C162.22 417.77 163.14 417.11 164.1 416.21L166.38 418.55C164.16 421.01 161.46 422.24 158.28 422.24C155.12 422.24 152.49 421.22 150.39 419.18C148.31 417.14 147.27 414.56 147.27 411.44C147.27 408.32 148.33 405.72 150.45 403.64C152.59 401.56 155.28 400.52 158.52 400.52C161.78 400.52 164.5 401.72 166.68 404.12L164.43 406.58C163.43 405.62 162.48 404.95 161.58 404.57C160.7 404.19 159.66 404 158.46 404C156.34 404 154.56 404.69 153.12 406.07C151.68 407.43 150.96 409.18 150.96 411.32C150.96 413.44 151.67 415.22 153.09 416.66C154.53 418.08 156.23 418.79 158.19 418.79ZM173.71 417.8C174.67 418.76 175.88 419.24 177.34 419.24C178.8 419.24 180 418.76 180.94 417.8C181.9 416.82 182.38 415.56 182.38 414.02C182.38 412.48 181.9 411.23 180.94 410.27C180 409.29 178.8 408.8 177.34 408.8C175.88 408.8 174.67 409.29 173.71 410.27C172.77 411.23 172.3 412.48 172.3 414.02C172.3 415.56 172.77 416.82 173.71 417.8ZM183.34 419.87C181.74 421.45 179.74 422.24 177.34 422.24C174.94 422.24 172.94 421.45 171.34 419.87C169.74 418.27 168.94 416.32 168.94 414.02C168.94 411.72 169.74 409.78 171.34 408.2C172.94 406.6 174.94 405.8 177.34 405.8C179.74 405.8 181.74 406.6 183.34 408.2C184.94 409.78 185.74 411.72 185.74 414.02C185.74 416.32 184.94 418.27 183.34 419.87ZM193.12 413.36V422H189.76V406.04H193.12V408.95C193.66 407.97 194.4 407.2 195.34 406.64C196.3 406.08 197.33 405.8 198.43 405.8C200.23 405.8 201.68 406.35 202.78 407.45C203.9 408.55 204.46 410.14 204.46 412.22V422H201.1V413.24C201.1 410.3 199.88 408.83 197.44 408.83C196.28 408.83 195.27 409.22 194.41 410C193.55 410.76 193.12 411.88 193.12 413.36ZM213.29 408.74V416.84C213.29 417.6 213.49 418.21 213.89 418.67C214.29 419.11 214.85 419.33 215.57 419.33C216.29 419.33 216.98 418.98 217.64 418.28L219.02 420.65C217.84 421.71 216.53 422.24 215.09 422.24C213.67 422.24 212.45 421.75 211.43 420.77C210.43 419.77 209.93 418.43 209.93 416.75V408.74H207.92V406.04H209.93V401.03H213.29V406.04H217.49V408.74H213.29ZM234.819 422H231.759V419.87C230.439 421.45 228.669 422.24 226.449 422.24C224.789 422.24 223.409 421.77 222.309 420.83C221.229 419.89 220.689 418.64 220.689 417.08C220.689 415.5 221.269 414.32 222.429 413.54C223.589 412.76 225.159 412.37 227.139 412.37H231.489V411.77C231.489 409.65 230.309 408.59 227.949 408.59C226.469 408.59 224.929 409.13 223.329 410.21L221.829 408.11C223.769 406.57 225.969 405.8 228.429 405.8C230.309 405.8 231.839 406.28 233.019 407.24C234.219 408.18 234.819 409.67 234.819 411.71V422ZM231.459 416.06V414.71H227.679C225.259 414.71 224.049 415.47 224.049 416.99C224.049 417.77 224.349 418.37 224.949 418.79C225.549 419.19 226.379 419.39 227.439 419.39C228.519 419.39 229.459 419.09 230.259 418.49C231.059 417.89 231.459 417.08 231.459 416.06ZM246.776 422.24C244.556 422.24 242.646 421.49 241.046 419.99C239.446 418.47 238.646 416.49 238.646 414.05C238.646 411.61 239.476 409.63 241.136 408.11C242.816 406.57 244.856 405.8 247.256 405.8C249.656 405.8 251.686 406.63 253.346 408.29L251.366 410.72C249.986 409.52 248.596 408.92 247.196 408.92C245.796 408.92 244.576 409.39 243.536 410.33C242.516 411.25 242.006 412.45 242.006 413.93C242.006 415.39 242.516 416.63 243.536 417.65C244.556 418.67 245.806 419.18 247.286 419.18C248.786 419.18 250.196 418.5 251.516 417.14L253.496 419.3C251.556 421.26 249.316 422.24 246.776 422.24ZM261.321 408.74V416.84C261.321 417.6 261.521 418.21 261.921 418.67C262.321 419.11 262.881 419.33 263.601 419.33C264.321 419.33 265.011 418.98 265.671 418.28L267.051 420.65C265.871 421.71 264.561 422.24 263.121 422.24C261.701 422.24 260.481 421.75 259.461 420.77C258.461 419.77 257.961 418.43 257.961 416.75V408.74H255.951V406.04H257.961V401.03H261.321V406.04H265.521V408.74H261.321Z" fill="#737373"/>
</g>
<defs>
<clipPath id="clip0_232_1926">
<rect width="24" height="23.9997" fill="white" transform="translate(248 40)"/>
</clipPath>
<clipPath id="clip1_232_1926">
<rect width="24" height="22.4002" fill="white" transform="translate(296 41)"/>
</clipPath>
<clipPath id="clip2_232_1926">
<rect width="123" height="270" fill="white" transform="translate(145 164)"/>
</clipPath>
</defs>
</svg>
